# xmcd
#
# Track frame offsets:
#	150
#	12517
#	25103
#	37823
#	48544
#	59651
#	69974
#	80682
#	91830
#	104107
#	116726
#	126790
#	136880
#	146775
#	158179
#	168153
#
# Disc length: 2384 seconds
#
# Revision: 1
# Processed by: cddbd v1.5.2PL0 Copyright (c) Steve Scherf et al.
# Submitted via: audiograbber 1.83.01
#
DISCID=dd094e10
DTITLE=Hank Locklin - Golden Memories - CD 2
DYEAR=2008
DGENRE=Country
TTITLE0=Rio Grande Waltz
TTITLE1=Who Do You Think You're Fooling
TTITLE2=I Always Lose
TTITLE3=Stumpy Joe
TTITLE4=Down Texas Way
TTITLE5=Picking Sweethearts
TTITLE6=Shadows
TTITLE7=Let Me Be The One
TTITLE8=The Red Rose
TTITLE9=Mysteries Of Life
TTITLE10=Empty Bottles, Empty Heart
TTITLE11=I'll Always Be Standing By
TTITLE12=Your Heart Is An Island
TTITLE13=Who Am I To Cast The First Stone
TTITLE14=You're Out Of Step ( With The Beat Of My Heart)
TTITLE15=These Ruins Belong To You
EXTD=
EXTT0=
EXTT1=
EXTT2=
EXTT3=
EXTT4=
EXTT5=
EXTT6=
EXTT7=
EXTT8=
EXTT9=
EXTT10=
EXTT11=
EXTT12=
EXTT13=
EXTT14=
EXTT15=
PLAYORDER=
